<svg xmlns="http://www.w3.org/2000/svg" width="360" height="350" viewBox="0 0 360 350" role="img" aria-labelledby="title desc"><title id="title">Abdulrahman Saad Asiri</title><desc id="desc">Data Engineer at stc · AI Engineer. Data → AI → Decisions. 7 public projects and 3 curated private summaries. Decorative nodes represent shared skills.</desc><defs><linearGradient id="surface" x2="1" y2="1"><stop stop-color="#ffffff"/><stop offset="1" stop-color="#f3f6ff"/></linearGradient><linearGradient id="rim"><stop stop-color="#0369a1" stop-opacity=".55"/><stop offset=".5" stop-color="#cbd5e1"/><stop offset="1" stop-color="#6d28d9" stop-opacity=".45"/></linearGradient><linearGradient id="highlight"><stop stop-color="#0369a1"/><stop offset="1" stop-color="#6d28d9"/></linearGradient><radialGradient id="aura"><stop stop-color="#0369a1" stop-opacity="0.1"/><stop offset="1" stop-color="#0369a1" stop-opacity="0"/></radialGradient></defs><rect x="1" y="1" width="358" height="348" rx="24" fill="url(#surface)" stroke="url(#rim)"/><rect x="100" y="10" width="250" height="330" rx="24" fill="url(#aura)"/><g transform="translate(305 22) scale(0.90625)" fill="none" stroke="#6d28d9" stroke-width="1.8" stroke-linecap="round" stroke-linejoin="round" opacity="1"><path d="M8 8 L24 8 L16 24 Z M16 16 V24 M8 8 L16 16 L24 8"/><circle cx="8" cy="8" r="4"/><circle cx="24" cy="8" r="4"/><circle cx="16" cy="24" r="4"/></g><text x="24" y="40" font-family="Segoe UI,Arial,sans-serif" font-size="12" font-weight="600" fill="#0369a1">ENGINEERING / RESEARCH</text><text x="24" y="88" font-family="Segoe UI,Arial,sans-serif" font-size="26" font-weight="700" fill="#142238">Abdulrahman Saad Asiri</text><text x="24" y="120" font-family="Segoe UI,Arial,sans-serif" font-size="17" font-weight="400" fill="#475569">Data Engineer at stc · AI Engineer</text><path d="M26 148 H166 L190 158 H334" fill="none" stroke="url(#highlight)" stroke-opacity=".5"/><circle cx="26" cy="148" r="3" fill="#0369a1"/><circle cx="166" cy="148" r="3" fill="#0369a1"/><circle cx="334" cy="158" r="3" fill="#0369a1"/><text x="24" y="193" font-family="Segoe UI,Arial,sans-serif" font-size="25" font-weight="600" fill="#142238">Data → AI → Decisions</text><text x="24" y="225" font-family="Segoe UI,Arial,sans-serif" font-size="15" font-weight="400" fill="#475569">Riyadh, Saudi Arabia</text><rect x="24" y="246" width="312" height="66" rx="14" fill="url(#aura)" stroke="url(#rim)"/><text x="40" y="272" font-family="Segoe UI,Arial,sans-serif" font-size="16" font-weight="600" fill="#142238">7 public projects</text><text x="40" y="296" font-family="Segoe UI,Arial,sans-serif" font-size="15" font-weight="400" fill="#475569">3 curated private summaries</text><text x="24" y="333" font-family="Segoe UI,Arial,sans-serif" font-size="10" font-weight="600" fill="#475569">PUBLIC EVIDENCE. CURATED SCOPE.</text></svg>
