<svg xmlns="http://www.w3.org/2000/svg" width="1180" height="378" viewBox="0 0 1180 378" role="img" aria-labelledby="title desc"><title id="title">Abdulrahman Saad Asiri</title><desc id="desc">Data Engineer at stc · AI Engineer. Data → AI → Decisions. Decorative nodes represent shared skills, not financial results or runtime dependencies.</desc><defs><linearGradient id="surface" x2="1" y2="1"><stop stop-color="#122137"/><stop offset="1" stop-color="#091221"/></linearGradient><linearGradient id="rim"><stop stop-color="#7dd3fc" stop-opacity=".55"/><stop offset=".5" stop-color="#2a405c"/><stop offset="1" stop-color="#bba5ff" stop-opacity=".45"/></linearGradient><linearGradient id="highlight"><stop stop-color="#7dd3fc"/><stop offset="1" stop-color="#bba5ff"/></linearGradient><radialGradient id="aura"><stop stop-color="#7dd3fc" stop-opacity="0.2"/><stop offset="1" stop-color="#7dd3fc" stop-opacity="0"/></radialGradient></defs><rect x="1" y="1" width="1178" height="376" rx="24" fill="url(#surface)" stroke="url(#rim)"/><rect x="710" y="10" width="460" height="358" rx="24" fill="url(#aura)"/><circle cx="790" cy="30" r="1.3" fill="#2a405c" opacity=".7"/><circle cx="790" cy="62" r="1.3" fill="#2a405c" opacity=".7"/><circle cx="790" cy="94" r="1.3" fill="#2a405c" opacity=".7"/><circle cx="790" cy="126" r="1.3" fill="#2a405c" opacity=".7"/><circle cx="790" cy="158" r="1.3" fill="#2a405c" opacity=".7"/><circle cx="790" cy="190" r="1.3" fill="#2a405c" opacity=".7"/><circle cx="790" cy="222" r="1.3" fill="#2a405c" opacity=".7"/><circle cx="790" cy="254" r="1.3" fill="#2a405c" opacity=".7"/><circle cx="790" cy="286" r="1.3" fill="#2a405c" opacity=".7"/><circle cx="822" cy="30" r="1.3" fill="#2a405c" opacity=".7"/><circle cx="822" cy="62" r="1.3" fill="#2a405c" opacity=".7"/><circle cx="822" cy="94" r="1.3" fill="#2a405c" opacity=".7"/><circle cx="822" cy="126" r="1.3" fill="#2a405c" opacity=".7"/><circle cx="822" cy="158" r="1.3" fill="#2a405c" opacity=".7"/><circle cx="822" cy="190" r="1.3" fill="#2a405c" opacity=".7"/><circle cx="822" cy="222" r="1.3" fill="#2a405c" opacity=".7"/><circle cx="822" cy="254" r="1.3" fill="#2a405c" opacity=".7"/><circle cx="822" cy="286" r="1.3" fill="#2a405c" opacity=".7"/><circle cx="854" cy="30" r="1.3" fill="#2a405c" opacity=".7"/><circle cx="854" cy="62" r="1.3" fill="#2a405c" opacity=".7"/><circle cx="854" cy="94" r="1.3" fill="#2a405c" opacity=".7"/><circle cx="854" cy="126" r="1.3" fill="#2a405c" opacity=".7"/><circle cx="854" cy="158" r="1.3" fill="#2a405c" opacity=".7"/><circle cx="854" cy="190" r="1.3" fill="#2a405c" opacity=".7"/><circle cx="854" cy="222" r="1.3" fill="#2a405c" opacity=".7"/><circle cx="854" cy="254" r="1.3" fill="#2a405c" opacity=".7"/><circle cx="854" cy="286" r="1.3" fill="#2a405c" opacity=".7"/><circle cx="886" cy="30" r="1.3" fill="#2a405c" opacity=".7"/><circle cx="886" cy="62" r="1.3" fill="#2a405c" opacity=".7"/><circle cx="886" cy="94" r="1.3" fill="#2a405c" opacity=".7"/><circle cx="886" cy="126" r="1.3" fill="#2a405c" opacity=".7"/><circle cx="886" cy="158" r="1.3" fill="#2a405c" opacity=".7"/><circle cx="886" cy="190" r="1.3" fill="#2a405c" opacity=".7"/><circle cx="886" cy="222" r="1.3" fill="#2a405c" opacity=".7"/><circle cx="886" cy="254" r="1.3" fill="#2a405c" opacity=".7"/><circle cx="886" cy="286" r="1.3" fill="#2a405c" opacity=".7"/><circle cx="918" cy="30" r="1.3" fill="#2a405c" opacity=".7"/><circle cx="918" cy="62" r="1.3" fill="#2a405c" opacity=".7"/><circle cx="918" cy="94" r="1.3" fill="#2a405c" opacity=".7"/><circle cx="918" cy="126" r="1.3" fill="#2a405c" opacity=".7"/><circle cx="918" cy="158" r="1.3" fill="#2a405c" opacity=".7"/><circle cx="918" cy="190" r="1.3" fill="#2a405c" opacity=".7"/><circle cx="918" cy="222" r="1.3" fill="#2a405c" opacity=".7"/><circle cx="918" cy="254" r="1.3" fill="#2a405c" opacity=".7"/><circle cx="918" cy="286" r="1.3" fill="#2a405c" opacity=".7"/><circle cx="950" cy="30" r="1.3" fill="#2a405c" opacity=".7"/><circle cx="950" cy="62" r="1.3" fill="#2a405c" opacity=".7"/><circle cx="950" cy="94" r="1.3" fill="#2a405c" opacity=".7"/><circle cx="950" cy="126" r="1.3" fill="#2a405c" opacity=".7"/><circle cx="950" cy="158" r="1.3" fill="#2a405c" opacity=".7"/><circle cx="950" cy="190" r="1.3" fill="#2a405c" opacity=".7"/><circle cx="950" cy="222" r="1.3" fill="#2a405c" opacity=".7"/><circle cx="950" cy="254" r="1.3" fill="#2a405c" opacity=".7"/><circle cx="950" cy="286" r="1.3" fill="#2a405c" opacity=".7"/><circle cx="982" cy="30" r="1.3" fill="#2a405c" opacity=".7"/><circle cx="982" cy="62" r="1.3" fill="#2a405c" opacity=".7"/><circle cx="982" cy="94" r="1.3" fill="#2a405c" opacity=".7"/><circle cx="982" cy="126" r="1.3" fill="#2a405c" opacity=".7"/><circle cx="982" cy="158" r="1.3" fill="#2a405c" opacity=".7"/><circle cx="982" cy="190" r="1.3" fill="#2a405c" opacity=".7"/><circle cx="982" cy="222" r="1.3" fill="#2a405c" opacity=".7"/><circle cx="982" cy="254" r="1.3" fill="#2a405c" opacity=".7"/><circle cx="982" cy="286" r="1.3" fill="#2a405c" opacity=".7"/><circle cx="1014" cy="30" r="1.3" fill="#2a405c" opacity=".7"/><circle cx="1014" cy="62" r="1.3" fill="#2a405c" opacity=".7"/><circle cx="1014" cy="94" r="1.3" fill="#2a405c" opacity=".7"/><circle cx="1014" cy="126" r="1.3" fill="#2a405c" opacity=".7"/><circle cx="1014" cy="158" r="1.3" fill="#2a405c" opacity=".7"/><circle cx="1014" cy="190" r="1.3" fill="#2a405c" opacity=".7"/><circle cx="1014" cy="222" r="1.3" fill="#2a405c" opacity=".7"/><circle cx="1014" cy="254" r="1.3" fill="#2a405c" opacity=".7"/><circle cx="1014" cy="286" r="1.3" fill="#2a405c" opacity=".7"/><circle cx="1046" cy="30" r="1.3" fill="#2a405c" opacity=".7"/><circle cx="1046" cy="62" r="1.3" fill="#2a405c" opacity=".7"/><circle cx="1046" cy="94" r="1.3" fill="#2a405c" opacity=".7"/><circle cx="1046" cy="126" r="1.3" fill="#2a405c" opacity=".7"/><circle cx="1046" cy="158" r="1.3" fill="#2a405c" opacity=".7"/><circle cx="1046" cy="190" r="1.3" fill="#2a405c" opacity=".7"/><circle cx="1046" cy="222" r="1.3" fill="#2a405c" opacity=".7"/><circle cx="1046" cy="254" r="1.3" fill="#2a405c" opacity=".7"/><circle cx="1046" cy="286" r="1.3" fill="#2a405c" opacity=".7"/><circle cx="1078" cy="30" r="1.3" fill="#2a405c" opacity=".7"/><circle cx="1078" cy="62" r="1.3" fill="#2a405c" opacity=".7"/><circle cx="1078" cy="94" r="1.3" fill="#2a405c" opacity=".7"/><circle cx="1078" cy="126" r="1.3" fill="#2a405c" opacity=".7"/><circle cx="1078" cy="158" r="1.3" fill="#2a405c" opacity=".7"/><circle cx="1078" cy="190" r="1.3" fill="#2a405c" opacity=".7"/><circle cx="1078" cy="222" r="1.3" fill="#2a405c" opacity=".7"/><circle cx="1078" cy="254" r="1.3" fill="#2a405c" opacity=".7"/><circle cx="1078" cy="286" r="1.3" fill="#2a405c" opacity=".7"/><circle cx="1110" cy="30" r="1.3" fill="#2a405c" opacity=".7"/><circle cx="1110" cy="62" r="1.3" fill="#2a405c" opacity=".7"/><circle cx="1110" cy="94" r="1.3" fill="#2a405c" opacity=".7"/><circle cx="1110" cy="126" r="1.3" fill="#2a405c" opacity=".7"/><circle cx="1110" cy="158" r="1.3" fill="#2a405c" opacity=".7"/><circle cx="1110" cy="190" r="1.3" fill="#2a405c" opacity=".7"/><circle cx="1110" cy="222" r="1.3" fill="#2a405c" opacity=".7"/><circle cx="1110" cy="254" r="1.3" fill="#2a405c" opacity=".7"/><circle cx="1110" cy="286" r="1.3" fill="#2a405c" opacity=".7"/><circle cx="1142" cy="30" r="1.3" fill="#2a405c" opacity=".7"/><circle cx="1142" cy="62" r="1.3" fill="#2a405c" opacity=".7"/><circle cx="1142" cy="94" r="1.3" fill="#2a405c" opacity=".7"/><circle cx="1142" cy="126" r="1.3" fill="#2a405c" opacity=".7"/><circle cx="1142" cy="158" r="1.3" fill="#2a405c" opacity=".7"/><circle cx="1142" cy="190" r="1.3" fill="#2a405c" opacity=".7"/><circle cx="1142" cy="222" r="1.3" fill="#2a405c" opacity=".7"/><circle cx="1142" cy="254" r="1.3" fill="#2a405c" opacity=".7"/><circle cx="1142" cy="286" r="1.3" fill="#2a405c" opacity=".7"/><circle cx="1010" cy="167" r="130" fill="none" stroke="url(#rim)"/><circle cx="1010" cy="167" r="93" fill="none" stroke="url(#highlight)" stroke-opacity=".35" stroke-dasharray="4 8"/><path d="M916 83 L1010 167 L1123 166 M1010 167 L954 281" fill="none" stroke="url(#highlight)" stroke-opacity=".5" stroke-width="2"/><circle cx="1010" cy="167" r="51" fill="#122137" stroke="url(#rim)"/><text x="976" y="183" font-family="Segoe UI,Arial,sans-serif" font-size="43" font-weight="700" fill="#f1f5f9">AS</text><circle cx="916" cy="83" r="24" fill="#122137" stroke="#38bdf8" stroke-opacity=".6"/><g transform="translate(904 71) scale(0.75)" fill="none" stroke="#38bdf8" stroke-width="1.8" stroke-linecap="round" stroke-linejoin="round" opacity="1"><path d="M4 7 Q4 3 16 3 Q28 3 28 7 Q28 11 16 11 Q4 11 4 7 Z M4 7 V24 Q4 28 16 28 Q28 28 28 24 V7 M4 15 Q4 19 16 19 Q28 19 28 15 M4 22 Q4 26 16 26 Q28 26 28 22"/></g><circle cx="1123" cy="166" r="24" fill="#122137" stroke="#a78bfa" stroke-opacity=".6"/><g transform="translate(1111 154) scale(0.75)" fill="none" stroke="#a78bfa" stroke-width="1.8" stroke-linecap="round" stroke-linejoin="round" opacity="1"><path d="M8 8 L24 8 L16 24 Z M16 16 V24 M8 8 L16 16 L24 8"/><circle cx="8" cy="8" r="4"/><circle cx="24" cy="8" r="4"/><circle cx="16" cy="24" r="4"/></g><circle cx="954" cy="281" r="24" fill="#122137" stroke="#34d399" stroke-opacity=".6"/><g transform="translate(942 269) scale(0.75)" fill="none" stroke="#34d399" stroke-width="1.8" stroke-linecap="round" stroke-linejoin="round" opacity="1"><rect x="3" y="16" width="6" height="12" rx="1"/><rect x="13" y="5" width="6" height="23" rx="1"/><rect x="23" y="11" width="6" height="17" rx="1"/></g><text x="44" y="49" font-family="Segoe UI,Arial,sans-serif" font-size="14" font-weight="600" fill="#7dd3fc">ENGINEERING / RESEARCH / PRACTICAL SYSTEMS</text><text x="44" y="116" font-family="Segoe UI,Arial,sans-serif" font-size="49" font-weight="700" fill="#f1f5f9">Abdulrahman Saad Asiri</text><text x="46" y="156" font-family="Segoe UI,Arial,sans-serif" font-size="22" font-weight="400" fill="#b4c5d9">Data Engineer at stc · AI Engineer</text><text x="44" y="226" font-family="Segoe UI,Arial,sans-serif" font-size="32" font-weight="600" fill="#f1f5f9">Data → AI → Decisions</text><text x="46" y="268" font-family="Segoe UI,Arial,sans-serif" font-size="17" font-weight="400" fill="#b4c5d9">Riyadh, Saudi Arabia</text><rect x="242" y="245" width="172" height="34" rx="17" fill="url(#aura)" stroke="url(#rim)"/><text x="258" y="267" font-family="Segoe UI,Arial,sans-serif" font-size="15" font-weight="400" fill="#f1f5f9">7 public projects</text><rect x="428" y="245" width="259" height="34" rx="17" fill="url(#aura)" stroke="url(#rim)"/><text x="444" y="267" font-family="Segoe UI,Arial,sans-serif" font-size="15" font-weight="400" fill="#f1f5f9">3 curated private summaries</text><rect x="44" y="321" width="1092" height="2" rx="1" fill="url(#highlight)"/><text x="44" y="354" font-family="Segoe UI,Arial,sans-serif" font-size="13" font-weight="600" fill="#b4c5d9">BUILD USEFUL SYSTEMS. MEASURE WHAT THEY DO.</text></svg>
