<svg xmlns="http://www.w3.org/2000/svg" width="1280" height="720" viewBox="0 0 1280 720" role="img" aria-labelledby="title desc">
  <title id="title">Abdulrahman project showcase</title>
  <desc id="desc">A visual grid of Abdulrahman's signature projects across finance AI, Arabic learning, AI products, and public awareness tools.</desc>
  <defs>
    <linearGradient id="bg" x1="0" y1="0" x2="1" y2="1">
      <stop offset="0" stop-color="#08111f"/>
      <stop offset="1" stop-color="#111827"/>
    </linearGradient>
    <linearGradient id="edge" x1="0" y1="0" x2="1" y2="0">
      <stop offset="0" stop-color="#22c55e"/>
      <stop offset="0.5" stop-color="#38bdf8"/>
      <stop offset="1" stop-color="#facc15"/>
    </linearGradient>
  </defs>
  <rect width="1280" height="720" rx="30" fill="url(#bg)"/>
  <g font-family="Inter, Segoe UI, Arial, sans-serif">
    <text x="64" y="70" fill="#ffffff" font-size="38" font-weight="900">Signature portfolio</text>
    <text x="64" y="106" fill="#94a3b8" font-size="18">Public work grouped by the problems I keep returning to.</text>
  </g>
  <line x1="64" y1="138" x2="1216" y2="138" stroke="url(#edge)" stroke-width="4" stroke-linecap="round"/>

  <g font-family="Inter, Segoe UI, Arial, sans-serif">
    <g transform="translate(64 174)">
      <rect width="356" height="206" rx="22" fill="#052e16" stroke="#22c55e"/>
      <text x="28" y="42" fill="#bbf7d0" font-size="23" font-weight="900">Stock Agents</text>
      <text x="28" y="76" fill="#dcfce7" font-size="16">11-agent investment analysis platform</text>
      <text x="28" y="106" fill="#dcfce7" font-size="16">US equities + Saudi Tadawul</text>
      <text x="28" y="136" fill="#dcfce7" font-size="16">Real-time data + portfolio analytics</text>
      <rect x="28" y="158" width="86" height="28" rx="9" fill="#14532d"/>
      <text x="45" y="178" fill="#bbf7d0" font-size="13" font-weight="800">FINANCE</text>
      <rect x="124" y="158" width="74" height="28" rx="9" fill="#14532d"/>
      <text x="145" y="178" fill="#bbf7d0" font-size="13" font-weight="800">AGENTS</text>
    </g>

    <g transform="translate(462 174)">
      <rect width="356" height="206" rx="22" fill="#082f49" stroke="#38bdf8"/>
      <text x="28" y="42" fill="#bae6fd" font-size="23" font-weight="900">Saudi Market Intelligence</text>
      <text x="28" y="76" fill="#e0f2fe" font-size="16">Tadawul scanner and prediction workflow</text>
      <text x="28" y="106" fill="#e0f2fe" font-size="16">Technical features + confidence scoring</text>
      <text x="28" y="136" fill="#e0f2fe" font-size="16">Portfolio tracking and market analysis</text>
      <rect x="28" y="158" width="86" height="28" rx="9" fill="#0c4a6e"/>
      <text x="43" y="178" fill="#bae6fd" font-size="13" font-weight="800">TADAWUL</text>
      <rect x="124" y="158" width="72" height="28" rx="9" fill="#0c4a6e"/>
      <text x="146" y="178" fill="#bae6fd" font-size="13" font-weight="800">ML</text>
    </g>

    <g transform="translate(860 174)">
      <rect width="356" height="206" rx="22" fill="#312e81" stroke="#a78bfa"/>
      <text x="28" y="42" fill="#ddd6fe" font-size="23" font-weight="900">Bidaya</text>
      <text x="28" y="76" fill="#ede9fe" font-size="16">Arabic/English AI interview coach</text>
      <text x="28" y="106" fill="#ede9fe" font-size="16">Voice pipeline + resume analysis</text>
      <text x="28" y="136" fill="#ede9fe" font-size="16">Feedback loops and performance analytics</text>
      <rect x="28" y="158" width="78" height="28" rx="9" fill="#4c1d95"/>
      <text x="49" y="178" fill="#ddd6fe" font-size="13" font-weight="800">VOICE</text>
      <rect x="116" y="158" width="84" height="28" rx="9" fill="#4c1d95"/>
      <text x="138" y="178" fill="#ddd6fe" font-size="13" font-weight="800">AR/EN</text>
    </g>

    <g transform="translate(64 424)">
      <rect width="356" height="206" rx="22" fill="#422006" stroke="#facc15"/>
      <text x="28" y="42" fill="#fef3c7" font-size="23" font-weight="900">Data Science Basics</text>
      <text x="28" y="76" fill="#fef9c3" font-size="16">Bilingual Arabic/English learning path</text>
      <text x="28" y="106" fill="#fef9c3" font-size="16">Hands-on notebooks from fundamentals</text>
      <text x="28" y="136" fill="#fef9c3" font-size="16">Built for Arabic-speaking learners</text>
      <rect x="28" y="158" width="92" height="28" rx="9" fill="#713f12"/>
      <text x="48" y="178" fill="#fef3c7" font-size="13" font-weight="800">LEARNING</text>
      <rect x="130" y="158" width="86" height="28" rx="9" fill="#713f12"/>
      <text x="148" y="178" fill="#fef3c7" font-size="13" font-weight="800">ARABIC</text>
    </g>

    <g transform="translate(462 424)">
      <rect width="356" height="206" rx="22" fill="#3f1d2f" stroke="#fb7185"/>
      <text x="28" y="42" fill="#ffe4e6" font-size="23" font-weight="900">Mindmaps Encyclopedia</text>
      <text x="28" y="76" fill="#ffe4e6" font-size="16">Interactive technical knowledge maps</text>
      <text x="28" y="106" fill="#ffe4e6" font-size="16">Generated HTML learning portal</text>
      <text x="28" y="136" fill="#ffe4e6" font-size="16">Built for structured deep learning</text>
      <rect x="28" y="158" width="74" height="28" rx="9" fill="#881337"/>
      <text x="45" y="178" fill="#ffe4e6" font-size="13" font-weight="800">MAPS</text>
      <rect x="112" y="158" width="76" height="28" rx="9" fill="#881337"/>
      <text x="132" y="178" fill="#ffe4e6" font-size="13" font-weight="800">HTML</text>
    </g>

    <g transform="translate(860 424)">
      <rect width="356" height="206" rx="22" fill="#1f2937" stroke="#94a3b8"/>
      <text x="28" y="42" fill="#f8fafc" font-size="23" font-weight="900">Cyber-Awareness</text>
      <text x="28" y="76" fill="#e2e8f0" font-size="16">Arabic-first security awareness training</text>
      <text x="28" y="106" fill="#e2e8f0" font-size="16">Incident response guidance</text>
      <text x="28" y="136" fill="#e2e8f0" font-size="16">Interactive prevention-focused UI</text>
      <rect x="28" y="158" width="90" height="28" rx="9" fill="#334155"/>
      <text x="48" y="178" fill="#f8fafc" font-size="13" font-weight="800">SECURITY</text>
      <rect x="128" y="158" width="84" height="28" rx="9" fill="#334155"/>
      <text x="148" y="178" fill="#f8fafc" font-size="13" font-weight="800">ARABIC</text>
    </g>
  </g>
</svg>
